<svg width="94" height="48" fill="none" xmlns="http://www.w3.org/2000/svg"><path d="M45.949 13.826h47.67v-1H45.95v1Z" fill="#333"/><path d="m75.746 2.021 17.762 11.805.44-1.196L76.188.826l-.44 1.195Z" fill="#333"/><path d="M48.949 1.826H1.278v1.077h47.67V1.826Z" fill="#0C797A"/><path d="M19.15 14.539 1.39 1.826l-.44 1.287L18.71 15.826l.44-1.287ZM49.62 36.45l-2.578 9.58H46.2l2.578-9.58h.843Z" fill="#0C797A"/><path d="M29.948 41.985c-.856 0-1.585-.233-2.187-.699-.602-.47-1.063-1.15-1.38-2.04-.319-.894-.478-1.973-.478-3.238 0-1.258.16-2.332.477-3.222.322-.894.784-1.576 1.387-2.045.606-.474 1.333-.71 2.181-.71.849 0 1.574.236 2.177.71.606.47 1.068 1.151 1.386 2.045.322.89.483 1.964.483 3.222 0 1.265-.16 2.344-.477 3.238-.319.89-.779 1.57-1.381 2.04-.602.466-1.332.699-2.188.699Zm0-1.25c.849 0 1.508-.41 1.978-1.227.47-.818.704-1.985.704-3.5 0-1.008-.108-1.866-.324-2.574-.212-.709-.518-1.248-.92-1.62a2.032 2.032 0 0 0-1.438-.556c-.84 0-1.498.415-1.971 1.244-.474.826-.71 1.994-.71 3.506 0 1.007.106 1.863.318 2.568.212.705.517 1.24.915 1.608.401.367.884.551 1.448.551ZM40.245 30.19v11.636h-1.41v-10.16h-.067l-2.841 1.887v-1.432l2.909-1.931h1.409Z" fill="#333"/><path d="M57.386 45.935c-.589 0-1.09-.16-1.504-.48-.414-.323-.73-.79-.95-1.402-.218-.615-.327-1.357-.327-2.227 0-.865.11-1.603.328-2.215.221-.614.539-1.083.953-1.406.417-.326.917-.488 1.5-.488s1.082.162 1.496.488c.417.323.735.791.953 1.406.222.612.332 1.35.332 2.215 0 .87-.11 1.612-.328 2.227-.219.611-.535 1.079-.95 1.402-.413.32-.915.48-1.503.48Zm0-.86c.583 0 1.036-.28 1.36-.843.322-.562.484-1.364.484-2.406 0-.693-.074-1.283-.223-1.77-.146-.487-.357-.858-.633-1.113a1.397 1.397 0 0 0-.988-.383c-.578 0-1.03.285-1.355.856-.326.568-.489 1.37-.489 2.41 0 .693.073 1.281.219 1.766.146.484.355.852.629 1.105.276.253.608.379.996.379Zm6.969.86a3.4 3.4 0 0 1-1.38-.265 2.363 2.363 0 0 1-.956-.739 1.984 1.984 0 0 1-.383-1.105h.984c.021.258.11.48.266.668.156.185.36.328.613.43.253.101.533.152.84.152.344 0 .648-.06.914-.18s.474-.286.625-.5c.151-.213.227-.46.227-.742 0-.294-.073-.553-.219-.777a1.448 1.448 0 0 0-.64-.532c-.282-.127-.626-.19-1.032-.19h-.64v-.86h.64c.318 0 .597-.058.836-.172a1.299 1.299 0 0 0 .773-1.219c0-.27-.06-.506-.18-.707a1.23 1.23 0 0 0-.507-.469 1.644 1.644 0 0 0-.766-.168c-.276 0-.536.051-.78.153-.243.099-.441.243-.595.433a1.129 1.129 0 0 0-.25.68h-.937c.016-.42.142-.787.379-1.102.237-.317.547-.565.93-.742a3.004 3.004 0 0 1 1.269-.265c.495 0 .92.1 1.273.3.355.198.627.46.817.785.19.326.285.678.285 1.055 0 .45-.118.835-.355 1.153a1.802 1.802 0 0 1-.958.66v.062c.506.084.9.298 1.184.645.284.343.426.77.426 1.277 0 .435-.119.826-.356 1.172a2.415 2.415 0 0 1-.96.812 3.127 3.127 0 0 1-1.387.297Z" fill="#0C797A"/></svg>