<svg width="70" height="50" fill="none" xmlns="http://www.w3.org/2000/svg"><path d="m59.782 44.453-11.376-15.7a19.374 19.374 0 0 0 3.733-6.556c.11-.328.197-.657.284-.987l.058-.22c.159-.59-.161-1.205-.715-1.374-.55-.17-1.13.172-1.288.763l-.06.228c-.074.28-.147.56-.24.84a17.158 17.158 0 0 1-3.071 5.514l-6.424-8.866a6.714 6.714 0 0 0 .083-4.54 6.297 6.297 0 0 0-2.226-3.086l2.155-4.883c.245-.555.022-1.218-.498-1.48-.52-.261-1.142-.024-1.387.532l-2.157 4.886a5.62 5.62 0 0 0-1.584-.238c-2.344 0-4.5 1.456-5.5 3.713a6.758 6.758 0 0 0-.209 4.925c.02.057.052.105.072.162L10.221 44.331c-.354.484-.274 1.182.18 1.56.19.159.416.236.64.236.31 0 .616-.147.822-.427L23.19 30.223c1.716 1.593 3.65 2.83 5.79 3.64a17.102 17.102 0 0 0 6.065 1.117c4.368 0 8.574-1.7 11.844-4.683l11.244 15.516c.206.284.514.432.825.432a.997.997 0 0 0 .636-.232c.456-.376.54-1.074.187-1.56ZM29.677 31.767c-1.926-.728-3.664-1.85-5.203-3.296l6.126-8.369a6.107 6.107 0 0 0 1.896 1.468 5.626 5.626 0 0 0 2.562.611c1.71 0 3.313-.78 4.447-2.076l6.112 8.434c-4.234 3.914-10.282 5.367-15.94 3.228Z" fill="#4F4F4F"/></svg>