<svg width="70" height="50" fill="none" xmlns="http://www.w3.org/2000/svg"><path d="M35 13.112c-6.213 0-11.269 5.316-11.269 11.85S28.787 36.812 35 36.812s11.269-5.316 11.269-11.85S41.213 13.112 35 13.112ZM35 11.133c.39 0 .706-.333.706-.743V2.57c0-.41-.316-.743-.706-.743-.39 0-.706.332-.706.742v7.821c0 .41.317.743.706.743ZM35 38.79c-.39 0-.706.332-.706.742v7.821c0 .41.317.742.706.742.39 0 .706-.332.706-.742v-7.821c0-.41-.316-.742-.706-.742ZM24.704 15.183a.687.687 0 0 0 .499.218c.18 0 .361-.073.5-.218a.769.769 0 0 0 0-1.05l-5.26-5.53a.681.681 0 0 0-.999 0 .769.769 0 0 0 0 1.05l5.26 5.53ZM45.298 34.74a.681.681 0 0 0-.998 0 .769.769 0 0 0 0 1.05l5.259 5.53a.687.687 0 0 0 .5.217c.18 0 .36-.073.498-.217a.769.769 0 0 0 0-1.05l-5.26-5.53ZM44.798 15.4c.18 0 .361-.072.5-.217l5.258-5.53a.769.769 0 0 0 0-1.05.681.681 0 0 0-.998 0l-5.26 5.53a.769.769 0 0 0 0 1.05.69.69 0 0 0 .5.218ZM24.704 34.74l-5.26 5.53a.769.769 0 0 0 0 1.05.687.687 0 0 0 .5.217c.18 0 .36-.073.499-.217l5.26-5.53a.769.769 0 0 0 0-1.05.681.681 0 0 0-1 0ZM56.294 24.219h-7.437c-.39 0-.706.332-.706.742s.316.742.706.742h7.437c.39 0 .706-.332.706-.742s-.316-.742-.706-.742ZM21.85 24.961c0-.41-.316-.742-.706-.742h-7.438c-.39 0-.706.332-.706.742s.316.742.706.742h7.437c.39 0 .707-.331.707-.742Z" fill="#4F4F4F"/></svg>