<svg width="70" height="50" fill="none" xmlns="http://www.w3.org/2000/svg"><path d="M35 5.769c-8.578 0-16.449 3.097-22.588 8.097-.221.182-.366.45-.403.747-.037.296.038.596.207.834.169.238.418.393.694.433.276.04.555-.04.776-.222C19.47 10.946 26.89 8.017 35 8.017s15.529 2.93 21.314 7.64c.221.182.5.262.776.223.276-.04.525-.196.694-.433.17-.238.244-.538.207-.834a1.148 1.148 0 0 0-.403-.747c-6.14-5-14.01-8.097-22.588-8.097Zm0 10.68c-6.147 0-11.878 2-16.333 5.866a1.088 1.088 0 0 0-.309.33 1.207 1.207 0 0 0-.135.904c.038.152.105.295.198.417.092.123.207.223.338.295a.989.989 0 0 0 1.215-.207c4.048-3.513 9.301-5.357 15.026-5.357s10.978 1.844 15.026 5.357c.104.112.228.198.365.255a.978.978 0 0 0 .85-.048c.131-.072.246-.172.338-.295.093-.122.16-.265.197-.417a1.207 1.207 0 0 0-.135-.904 1.088 1.088 0 0 0-.308-.33C46.878 18.449 41.147 16.448 35 16.448Zm0 10.117c-3.753 0-7.319 1.264-10.061 3.6a1.193 1.193 0 0 0-.168 1.587 1 1 0 0 0 1.474.188c2.341-1.995 5.444-3.127 8.755-3.127 3.31 0 6.413 1.132 8.754 3.127a1 1 0 0 0 1.475-.188 1.193 1.193 0 0 0-.168-1.587c-2.742-2.336-6.307-3.6-10.061-3.6Zm0 10.68c-1.732 0-3.136 1.51-3.136 3.372 0 1.862 1.404 3.372 3.136 3.372 1.732 0 3.136-1.51 3.136-3.372 0-1.863-1.404-3.373-3.136-3.373Z" fill="#4F4F4F"/></svg>