<svg width="70" height="50" fill="none" xmlns="http://www.w3.org/2000/svg"><path d="M39.28 3.798 23.7 15.47H12V34.37h11.7l15.58 11.673V3.798Zm11.148 5.541a1.049 1.049 0 0 0-.63.263 1.12 1.12 0 0 0-.35.603c-.051.235-.027.481.068.701.096.22.257.401.46.518 3.264 1.93 5.885 7.185 5.885 13.496 0 6.312-2.621 11.55-5.884 13.48a1.109 1.109 0 0 0-.496.675c-.073.285-.034.587.107.842.142.255.374.441.648.518.273.077.565.039.81-.107C55.28 37.824 58 31.853 58 24.92S55.279 12 51.047 9.495a1.038 1.038 0 0 0-.619-.156Zm-5.583 4.447c-.233.01-.456.1-.635.255a1.12 1.12 0 0 0-.358.603c-.053.236-.03.483.064.705.095.221.257.404.461.521 2.01 1.235 3.761 4.765 3.761 9.05 0 4.286-1.751 7.798-3.76 9.033a1.09 1.09 0 0 0-.316.289 1.137 1.137 0 0 0-.211.83c.02.145.066.285.137.412.072.127.167.238.28.327a1.06 1.06 0 0 0 .799.215c.14-.02.275-.07.397-.145 2.987-1.835 4.814-6.077 4.814-10.96 0-4.884-1.827-9.143-4.814-10.979a1.038 1.038 0 0 0-.619-.156Z" fill="#4F4F4F"/></svg>